<svg width="40" height="40" viewBox="0 0 40 40" fill="none" xmlns="http://www.w3.org/2000/svg">
<rect x="-6.10352e-05" width="40" height="40" rx="20" fill="white"/>
<g clip-path="url(#clip0_69_1838)">
<mask id="mask0_69_1838" style="mask-type:luminance" maskUnits="userSpaceOnUse" x="9" y="10" width="21" height="21">
<path d="M29.9882 10.002H9.98822V30.002H29.9882V10.002Z" fill="white"/>
</mask>
<g mask="url(#mask0_69_1838)">
<path d="M19.9882 11.8027C22.6601 11.8027 22.9765 11.8145 24.0273 11.8613C25.0038 11.9043 25.5312 12.0684 25.8828 12.2051C26.3476 12.3848 26.6836 12.6035 27.0312 12.9512C27.3828 13.3027 27.5976 13.6348 27.7773 14.0996C27.914 14.4512 28.0781 14.9824 28.1211 15.9551C28.1679 17.0097 28.1796 17.3262 28.1796 19.9942C28.1796 22.666 28.1679 22.9824 28.1211 24.0332C28.0781 25.0098 27.914 25.5371 27.7773 25.8887C27.5976 26.3535 27.3788 26.6895 27.0312 27.0371C26.6796 27.3887 26.3476 27.6035 25.8828 27.7832C25.5312 27.9199 24.9999 28.084 24.0273 28.127C22.9726 28.1738 22.6562 28.1855 19.9882 28.1855C17.3163 28.1855 16.9999 28.1738 15.9492 28.127C14.9726 28.084 14.4453 27.9199 14.0937 27.7832C13.6288 27.6035 13.2929 27.3848 12.9453 27.0371C12.5937 26.6855 12.3788 26.3535 12.1992 25.8887C12.0624 25.5371 11.8984 25.0059 11.8554 24.0332C11.8085 22.9785 11.7968 22.6621 11.7968 19.9942C11.7968 17.3223 11.8085 17.0059 11.8554 15.9551C11.8984 14.9785 12.0624 14.4512 12.1992 14.0996C12.3788 13.6348 12.5976 13.2988 12.9453 12.9512C13.2968 12.5996 13.6288 12.3848 14.0937 12.2051C14.4453 12.0684 14.9765 11.9043 15.9492 11.8613C16.9999 11.8145 17.3163 11.8027 19.9882 11.8027ZM19.9882 10.002C17.2734 10.002 16.9336 10.0137 15.8671 10.0605C14.8046 10.1074 14.0742 10.2793 13.4413 10.5254C12.7812 10.7832 12.2226 11.123 11.6679 11.6816C11.1093 12.2363 10.7695 12.7949 10.5117 13.4512C10.2656 14.0879 10.0937 14.8145 10.0468 15.877C9.99994 16.9472 9.98822 17.2871 9.98822 20.002C9.98822 22.7168 9.99994 23.0567 10.0468 24.123C10.0937 25.1855 10.2656 25.916 10.5117 26.5488C10.7695 27.209 11.1093 27.7676 11.6679 28.3223C12.2226 28.877 12.7812 29.2207 13.4374 29.4746C14.0742 29.7207 14.8007 29.8926 15.8632 29.9395C16.9296 29.9863 17.2695 29.998 19.9843 29.998C22.6992 29.998 23.039 29.9863 24.1054 29.9395C25.1679 29.8926 25.8984 29.7207 26.5312 29.4746C27.1874 29.2207 27.7461 28.877 28.3007 28.3223C28.8554 27.7676 29.1992 27.209 29.4531 26.5527C29.6992 25.916 29.8711 25.1895 29.9179 24.127C29.9648 23.0605 29.9765 22.7207 29.9765 20.0059C29.9765 17.291 29.9648 16.9512 29.9179 15.8848C29.8711 14.8223 29.6992 14.0918 29.4531 13.459C29.207 12.7949 28.8671 12.2363 28.3086 11.6816C27.7538 11.127 27.1953 10.7832 26.539 10.5293C25.9023 10.2832 25.1757 10.1113 24.1132 10.0645C23.0429 10.0137 22.7031 10.002 19.9882 10.002Z" fill="#000100"/>
<path d="M19.9882 14.8652C17.1523 14.8652 14.8515 17.166 14.8515 20.0019C14.8515 22.8379 17.1523 25.1387 19.9882 25.1387C22.8241 25.1387 25.1249 22.8379 25.1249 20.0019C25.1249 17.166 22.8241 14.8652 19.9882 14.8652ZM19.9882 23.334C18.1484 23.334 16.6562 21.8418 16.6562 20.0019C16.6562 18.1621 18.1484 16.6699 19.9882 16.6699C21.828 16.6699 23.3203 18.1621 23.3203 20.0019C23.3203 21.8418 21.828 23.334 19.9882 23.334Z" fill="#000100"/>
<path d="M26.5273 14.6621C26.5273 15.3262 25.9882 15.8613 25.3281 15.8613C24.664 15.8613 24.1288 15.3223 24.1288 14.6621C24.1288 13.998 24.6679 13.4629 25.3281 13.4629C25.9882 13.4629 26.5273 14.002 26.5273 14.6621Z" fill="#000100"/>
</g>
</g>
<defs>
<clipPath id="clip0_69_1838">
<rect width="20" height="20" fill="white" transform="translate(9.99994 10)"/>
</clipPath>
</defs>
</svg>
