<svg width="40" height="40" viewBox="0 0 40 40" fill="none" xmlns="http://www.w3.org/2000/svg">
<rect x="-6.10352e-05" width="40" height="40" rx="20" fill="white"/>
<g clip-path="url(#clip0_69_1857)">
<mask id="mask0_69_1857" style="mask-type:luminance" maskUnits="userSpaceOnUse" x="10" y="10" width="21" height="20">
<path d="M30.0019 10H10.0019V30H30.0019V10Z" fill="white"/>
</mask>
<g mask="url(#mask0_69_1857)">
<path d="M28.5255 10H11.4783C11.0867 10 10.7112 10.1555 10.4343 10.4324C10.1574 10.7093 10.0019 11.0848 10.0019 11.4764V28.5236C10.0019 28.9152 10.1574 29.2907 10.4343 29.5676C10.7112 29.8445 11.0867 30 11.4783 30H28.5255C28.9171 30 29.2926 29.8445 29.5695 29.5676C29.8463 29.2907 30.0019 28.9152 30.0019 28.5236V11.4764C30.0019 11.0848 29.8463 10.7093 29.5695 10.4324C29.2926 10.1555 28.9171 10 28.5255 10ZM15.963 27.0375H12.9561V17.4861H15.963V27.0375ZM14.4574 16.1625C14.1164 16.1606 13.7835 16.0577 13.5008 15.8667C13.2182 15.6758 12.9984 15.4055 12.8693 15.0897C12.7402 14.774 12.7074 14.4272 12.7753 14.0929C12.8431 13.7586 13.0084 13.4519 13.2504 13.2115C13.4923 12.9711 13.8001 12.8077 14.1348 12.742C14.4695 12.6764 14.8161 12.7113 15.131 12.8425C15.4459 12.9736 15.7149 13.1951 15.9039 13.479C16.0931 13.7629 16.1938 14.0964 16.1936 14.4375C16.1968 14.6659 16.154 14.8925 16.0677 15.104C15.9815 15.3155 15.8536 15.5074 15.6915 15.6684C15.5295 15.8294 15.3368 15.9561 15.1247 16.041C14.9127 16.1258 14.6858 16.1672 14.4574 16.1625ZM27.0464 27.0458H24.0408V21.8278C24.0408 20.2889 23.3866 19.8139 22.5422 19.8139C21.6505 19.8139 20.7755 20.4861 20.7755 21.8667V27.0458H17.7686V17.493H20.6602V18.8167H20.6991C20.9894 18.2292 22.0061 17.225 23.5574 17.225C25.2352 17.225 27.0477 18.2208 27.0477 21.1375L27.0464 27.0458Z" fill="black"/>
</g>
</g>
<defs>
<clipPath id="clip0_69_1857">
<rect width="20" height="20" fill="white" transform="translate(9.99994 10)"/>
</clipPath>
</defs>
</svg>
