<svg id="Layer_1" enable-background="new 0 0 512 512" height="512" viewBox="0 0 512 512" width="512" xmlns="http://www.w3.org/2000/svg"><path fill="#00bcff" clip-rule="evenodd" d="m240.924 54.166c31.673 0 61.757 6.799 88.876 19.014l-14.182 14.167 10.313 47.852-15.187 15.155c-20.526-11.921-44.374-18.751-69.82-18.751-76.897 0-139.234 62.337-139.234 139.234s62.337 139.234 139.234 139.234 139.234-62.337 139.234-139.234c0-25.341-6.772-49.101-18.603-69.568l15.079-15.047 48.259 10.4 13.998-13.983c12.022 26.942 18.705 56.79 18.705 88.198 0 119.664-97.007 216.671-216.671 216.671s-216.671-97.007-216.671-216.671 97.007-216.671 216.67-216.671zm0 178.873c-20.882 0-37.797 16.915-37.797 37.797 0 20.883 16.915 37.798 37.797 37.798 20.883 0 37.798-16.915 37.798-37.798 0-6.061-1.427-11.786-3.96-16.862l94.163-93.966 48.243 10.397 69.104-69.104c1.328-1.328 1.792-3.146 1.26-4.949-.531-1.803-1.905-3.078-3.742-3.474l-53.005-11.423-11.425-53.004c-.396-1.837-1.672-3.211-3.474-3.743-1.803-.531-3.62-.068-4.948 1.261l-69.104 69.104 10.316 47.868-94.292 94.095c-5.093-2.557-10.845-3.997-16.934-3.997zm0-77.436c-63.642 0-115.234 51.592-115.234 115.234s51.592 115.234 115.234 115.234 115.234-51.592 115.234-115.234c0-18.666-4.443-36.293-12.322-51.887l-41.932 41.844c.535 3.269.817 6.623.817 10.043 0 34.13-27.668 61.797-61.797 61.797s-61.797-27.668-61.797-61.797 27.667-61.797 61.797-61.797c3.465 0 6.862.29 10.171.838l41.933-41.845c-15.647-7.947-33.351-12.43-52.104-12.43z" fill-rule="evenodd"/></svg>
