<svg id="Layer_1" enable-background="new 0 0 512 512" height="512" viewBox="0 0 512 512" width="512" xmlns="http://www.w3.org/2000/svg"><path fill="#00bcff" clip-rule="evenodd" d="m370.581 512h-87.744v-312.057h87.744zm141.419 0h-87.749v-386.545h87.749zm-424.251 0h-87.749v-163.091h87.749zm328.452-407.452c6.456 0 12.592-3.832 15.216-10.176l24.49-59.34c1.887-4.559 1.62-9.725-.713-14.066-2.333-4.346-6.494-7.412-11.34-8.357l-63.012-12.301c-8.925-1.741-17.559 4.079-19.295 12.999-1.741 8.915 4.079 17.554 12.994 19.295l17.19 3.356-382.94 201.695c-8.042 4.234-11.127 14.183-6.892 22.22 2.954 5.592 8.658 8.789 14.571 8.789 2.58 0 5.214-.611 7.649-1.901l384.041-202.272-7.154 17.33c-3.468 8.396.523 18.015 8.925 21.478 2.055.849 4.18 1.251 6.27 1.251zm-187.033 407.452h-87.749v-251.814h87.749z" fill-rule="evenodd"/></svg>
