<svg id="Layer_1" enable-background="new 0 0 512 512" height="512" viewBox="0 0 512 512" width="512" xmlns="http://www.w3.org/2000/svg"><path fill="#00bcff" clip-rule="evenodd" d="m422.765 261.29c-43.31 69.501-102.059 112.21-166.765 112.21s-123.455-42.71-166.765-112.211c-2.067-3.317-2.067-7.262 0-10.578 43.31-69.501 102.059-112.211 166.765-112.211s123.455 42.71 166.765 112.211c2.067 3.317 2.067 7.262 0 10.579zm-166.765-70.29c-35.899 0-65 29.102-65 65s29.102 65 65 65 65-29.102 65-65-29.102-65-65-65zm0-175c-132.548 0-240 107.452-240 240s107.452 240 240 240 240-107.452 240-240-107.452-240-240-240z" fill-rule="evenodd"/></svg>
