<svg width="40" height="40" viewBox="0 0 40 40" fill="none" xmlns="http://www.w3.org/2000/svg">
<rect x="-6.10352e-05" width="40" height="40" rx="20" fill="white"/>
<path d="M29.8295 16.7144C29.7066 15.5098 29.4423 14.1782 28.4694 13.4784C27.7158 12.9357 26.7254 12.9157 25.8007 12.9168C23.8461 12.9179 21.8904 12.9201 19.9357 12.9212C18.0557 12.9235 16.1757 12.9246 14.2956 12.9268C13.5103 12.9279 12.7469 12.8655 12.0175 13.211C11.3911 13.5074 10.9008 14.0712 10.6058 14.6986C10.1967 15.5711 10.1111 16.5596 10.0617 17.5246C9.9707 19.2819 9.98057 21.0436 10.0892 22.7998C10.1692 24.0813 10.3722 25.4976 11.3473 26.3144C12.2116 27.0376 13.4313 27.0733 14.5523 27.0744C18.1106 27.0777 21.6699 27.0811 25.2292 27.0833C25.6855 27.0844 26.1616 27.0755 26.6266 27.0243C27.5414 26.924 28.4134 26.6577 29.0013 25.969C29.5948 25.2748 29.7472 24.3086 29.8372 23.3938C30.0565 21.174 30.0543 18.9331 29.8295 16.7144ZM17.878 23.1118V16.8883L23.1825 19.9995L17.878 23.1118Z" fill="black"/>
</svg>
